<svg width="32" height="32" viewBox="0 0 32 32" fill="none" xmlns="http://www.w3.org/2000/svg">
<path fill-rule="evenodd" clip-rule="evenodd" d="M10.6667 2.6665H20.9334C25.3517 2.6665 28.9334 6.24823 28.9334 10.6665V20.9332C28.9334 25.3514 25.3517 28.9332 20.9334 28.9332H10.6667C6.24847 28.9332 2.66675 25.3514 2.66675 20.9332V10.6665C2.66675 6.24823 6.24847 2.6665 10.6667 2.6665ZM26.9334 10.6665C26.9261 7.35584 24.2441 4.67384 20.9334 4.6665H10.6667C7.35608 4.67384 4.67408 7.35584 4.66675 10.6665V20.9332C4.67408 24.2438 7.35608 26.9258 10.6667 26.9332H20.9334C24.2441 26.9258 26.9261 24.2438 26.9334 20.9332V10.6665Z" fill="white"/>
<path fill-rule="evenodd" clip-rule="evenodd" d="M10.0667 15.7998C10.0741 12.6364 12.6367 10.0738 15.8001 10.0665C18.9635 10.0738 21.5261 12.6364 21.5334 15.7998C21.5334 18.9663 18.9665 21.5332 15.8001 21.5332C12.6336 21.5332 10.0667 18.9663 10.0667 15.7998ZM19.5334 15.7998C19.5334 13.738 17.8619 12.0665 15.8001 12.0665C13.7413 12.0738 12.0741 13.741 12.0667 15.7998C12.0667 17.8617 13.7382 19.5332 15.8001 19.5332C17.8619 19.5332 19.5334 17.8617 19.5334 15.7998Z" fill="white"/>
<path d="M20.6801 8.67317C20.6801 7.8742 21.3278 7.2265 22.1267 7.2265C22.9257 7.2265 23.5734 7.8742 23.5734 8.67317C23.5734 9.47214 22.9257 10.1198 22.1267 10.1198C21.3278 10.1198 20.6801 9.47214 20.6801 8.67317Z" fill="white"/>
</svg>
