<svg width="32" height="32" viewBox="0 0 32 32" fill="none" xmlns="http://www.w3.org/2000/svg">
<path fill-rule="evenodd" clip-rule="evenodd" d="M10.0777 10.6667C8.69139 10.6783 7.30477 10.6758 5.91835 10.6681C5.52662 10.6658 5.33254 10.801 5.33325 11.2469C5.34193 16.2184 5.33856 21.1899 5.33958 26.1614C5.33969 26.3507 5.31069 26.5586 5.54377 26.6448C5.55265 26.6752 10.4401 26.6732 10.4533 26.6431C10.7106 26.543 10.6587 26.3097 10.6588 26.1081C10.6611 21.1717 10.6571 16.2351 10.6666 11.2986C10.6673 10.8507 10.514 10.663 10.0777 10.6667Z" fill="white"/>
<path fill-rule="evenodd" clip-rule="evenodd" d="M7.99987 4C6.52721 4 5.33325 5.19395 5.33325 6.66662C5.33325 8.13947 6.52721 9.33333 7.99987 9.33333C9.47263 9.33333 10.6666 8.13947 10.6666 6.66662C10.6666 5.19395 9.47263 4 7.99987 4Z" fill="white"/>
<path fill-rule="evenodd" clip-rule="evenodd" d="M27.9307 25.9003C27.9339 23.352 27.9469 20.8037 27.9262 18.2556C27.9171 17.1395 27.877 16.0204 27.6425 14.9219C27.258 13.1209 26.3926 11.7147 24.6738 11.059C23.527 10.6216 22.3281 10.5935 21.1306 10.763C20.1246 10.9055 19.1979 11.2887 18.3537 12.0009C18.3537 11.7417 18.3528 11.5699 18.3539 11.3983C18.3565 11.0128 18.1771 10.8386 17.8076 10.8403C16.4943 10.8465 15.1811 10.8449 13.8677 10.8414C13.5062 10.8403 13.3328 10.9896 13.3333 11.396C13.3402 16.2859 13.3376 21.1757 13.3378 26.0656C13.3378 26.2531 13.3131 26.4526 13.5302 26.545C13.5531 26.5752 18.2944 26.5865 18.2942 26.5557C18.6051 26.416 18.5095 26.1212 18.51 25.8812C18.5144 23.4694 18.4999 21.0576 18.5129 18.6459C18.5168 17.8917 18.5447 17.1298 18.8704 16.4276C19.2564 15.5955 20.0552 15.2349 21.1804 15.3825C21.9545 15.4839 22.4486 16.008 22.6024 16.9212C22.6594 17.2585 22.702 17.6035 22.704 17.9452C22.719 20.5981 22.7211 23.2509 22.7321 25.9038C22.7332 26.1488 22.6597 26.4381 22.9752 26.5612C22.9644 26.596 27.7384 26.5749 27.7397 26.5412C27.9965 26.3914 27.9304 26.1302 27.9307 25.9003Z" fill="white"/>
</svg>
