<svg width="32" height="32" viewBox="0 0 32 32" fill="none" xmlns="http://www.w3.org/2000/svg">
<path d="M24.1541 8.01176C22.7176 7.07518 21.6809 5.57666 21.3574 3.82979C21.2876 3.45236 21.2492 3.06393 21.2492 2.6665H16.6646L16.6573 21.0398C16.5802 23.0973 14.8868 24.7486 12.8109 24.7486C12.1657 24.7486 11.5581 24.5873 11.0232 24.3058C9.79657 23.6603 8.95711 22.3745 8.95711 20.8949C8.95711 18.7698 10.686 17.041 12.8109 17.041C13.2075 17.041 13.5881 17.1064 13.948 17.2191V12.5388C13.5755 12.4881 13.197 12.4564 12.8109 12.4564C8.15789 12.4564 4.37256 16.2419 4.37256 20.8949C4.37256 23.7497 5.7989 26.2761 7.97494 27.8038C9.34558 28.7661 11.0128 29.3332 12.8109 29.3332C17.4639 29.3332 21.2492 25.5479 21.2492 20.8949V11.5781C23.0473 12.8687 25.2503 13.6292 27.6275 13.6292V9.04463C26.3469 9.04463 25.1543 8.66395 24.1541 8.01176Z" fill="white"/>
</svg>
