<svg width="92" height="92" viewBox="0 0 92 92" fill="none" xmlns="http://www.w3.org/2000/svg">
<path fill-rule="evenodd" clip-rule="evenodd" d="M14.8378 70.4872L16.0673 70.6169C16.6498 70.6822 16.6498 71.1351 16.6498 71.4588V72.9471H10.9546V71.4588C10.9546 71.1356 11.0194 70.6822 11.602 70.6169L12.8314 70.4872V69.2578H5.45386V70.4872L6.68378 70.6169C7.20148 70.6822 7.26582 71.1351 7.26582 71.4588V76.2478C7.26582 76.572 7.20148 77.0253 6.68378 77.0897L5.45386 77.2194V78.4488H12.8319V77.2194L11.6024 77.0897C11.0199 77.0253 10.9551 76.5725 10.9551 76.2478V74.8244H16.6503V76.2478C16.6503 76.572 16.6503 77.0253 16.0678 77.0897L14.8383 77.2194V78.4488H22.2158V77.2194L20.9864 77.0897C20.4687 77.0253 20.4039 76.5725 20.4039 76.2478V71.4588C20.4039 71.1356 20.4687 70.6822 20.9864 70.6169L22.2158 70.4872V69.2578H14.8378V70.4872ZM64.2186 69.2578H55.093V70.4872L56.1937 70.6169C56.5812 70.6822 56.8406 70.8119 56.8406 71.3945V76.2473C56.8406 76.5715 56.7762 77.0248 56.1937 77.0892L54.9633 77.2189V78.4483H64.2186C67.5188 78.4483 70.2375 77.1545 70.2375 73.8533C70.238 70.5526 67.5188 69.2578 64.2186 69.2578ZM63.5717 76.7002H60.465V71.0054H63.5717C65.3837 71.0054 65.9662 71.8473 65.9662 73.8528C65.9662 75.8593 65.3837 76.7002 63.5717 76.7002Z" fill="white"/>
<path fill-rule="evenodd" clip-rule="evenodd" d="M85.8355 77.0888C85.253 77.0244 85.058 76.6359 84.8644 76.3766L80.5931 69.8405C80.27 69.3876 80.0749 69.2579 79.6221 69.2579H72.6326V70.4873L74.2505 70.6823C74.5099 70.6823 74.8331 71.0055 74.5737 71.4589L71.4032 76.5721C71.2735 76.7661 71.1438 77.0249 70.7553 77.0893L69.5259 77.219V78.4484H75.4156V77.219L74.4446 77.1546C73.9917 77.0893 73.7323 76.7661 73.9917 76.4424L74.4446 75.6649H80.1403L80.5288 76.3127C80.9163 76.8299 80.4635 77.0893 80.0106 77.0893L78.9752 77.219V78.4484H87.0001V77.219L85.8355 77.0888ZM75.4151 73.9826L77.1627 71.1995L79.039 73.9826H75.4151ZM48.4273 70.4873L49.722 70.617C50.2392 70.6823 50.3046 71.1352 50.3046 71.4589V76.0539L45.4502 69.6469C45.1914 69.3227 44.9974 69.2584 44.4797 69.2584H38.1371V70.4878L39.3665 70.6175C39.949 70.6828 40.0138 71.1357 40.0138 71.4594V76.2484C40.0138 76.5726 39.949 77.0259 39.3665 77.0903L38.1371 77.22V78.4494H44.0263V77.22L42.7964 77.0903C42.2787 77.0259 42.2138 76.5731 42.2138 76.2484V71.6534L47.0682 78.0613C47.3275 78.3845 47.521 78.4489 48.0382 78.4489H52.5045V71.4594C52.5045 71.1362 52.5689 70.6828 53.1514 70.6175L54.3808 70.4878V69.2584H48.4268V70.4873H48.4273ZM30.1765 68.9347C24.1576 68.9347 22.6045 71.5881 22.6045 73.8529C22.6045 76.1831 24.1576 78.7721 30.1765 78.7721C36.1954 78.7721 37.749 76.1831 37.749 73.8529C37.7485 71.5881 36.1954 68.9347 30.1765 68.9347ZM30.1765 77.0244C27.8468 77.0244 26.8758 76.0534 26.8758 73.8529C26.8758 71.6524 27.8463 70.6823 30.1765 70.6823C32.5067 70.6823 33.4772 71.6524 33.4772 73.8529C33.4772 76.0534 32.5067 77.0244 30.1765 77.0244ZM26.9406 67.5103L22.4748 63.3682L44.9974 60.7802L55.8706 67.5103H26.9406ZM64.8656 49.8416L17.4913 58.7088L21.5686 62.5263L43.4438 59.8086C43.0552 59.6146 42.9909 59.4201 42.9909 59.1617C42.9909 58.9024 43.1849 58.6435 43.5729 58.5792C43.7674 58.5792 55.6756 56.8316 56.517 56.7019C56.9045 56.6365 57.8761 56.4425 58.9115 55.9253C59.9469 55.4725 60.5938 54.9543 60.9823 54.5652C61.3055 54.3069 62.2117 53.3358 62.8596 52.6236C63.227 52.2556 63.5727 51.8666 63.895 51.4585C64.1544 51.1353 64.7369 50.4231 64.9947 50.0994C65.0606 49.9712 64.9952 49.8416 64.8656 49.8416ZM72.3089 39.487L13.0908 54.6959L16.6504 57.9971L34.9012 54.5019C34.578 54.3079 34.3835 54.1787 34.3835 53.855C34.386 53.7121 34.4395 53.5748 34.5345 53.4679C34.6295 53.3611 34.7595 53.2918 34.9012 53.2725L64.5424 47.5124C64.9309 47.4476 65.9663 47.2531 66.9369 46.6062C67.9079 46.0236 68.4261 45.3768 68.7498 45.0526C69.1374 44.5997 69.8496 43.6935 70.3678 43.0466C70.7553 42.5289 71.08 42.0112 71.3378 41.6232C71.5972 41.2351 72.1797 40.1992 72.5029 39.7464C72.5678 39.6162 72.4386 39.4222 72.3089 39.487Z" fill="white"/>
<path fill-rule="evenodd" clip-rule="evenodd" d="M64.4779 22.2717C65.2545 21.948 69.2026 20.2652 70.043 19.8118C70.9497 19.4238 73.5382 18.2587 74.5093 17.8059C75.609 17.353 78.7158 15.8642 79.1686 15.6702C81.3691 14.6348 84.0878 13.3406 84.605 13.0169C84.7347 12.952 84.9935 13.0817 84.9282 13.2757C84.4649 14.7696 83.9249 16.2385 83.3102 17.6767C82.9227 18.5829 82.3402 19.8772 81.822 20.7186C81.1751 21.7545 80.5282 22.4657 80.01 22.9191C78.9103 23.955 78.0035 24.4727 77.033 24.8612C76.4504 25.0552 75.221 25.5729 74.3796 25.8966C74.1856 25.9614 70.8844 27.1908 70.1722 27.3849L11.796 48.0301C10.4369 48.483 8.88377 49.3887 8.88377 51.1363C8.88377 51.9139 9.33713 52.9493 10.2429 53.7897L24.9989 67.5103H18.1386C18.0094 67.1228 17.8149 66.5402 17.556 66.1512C17.2972 65.7622 17.168 65.3747 16.391 64.6629C15.8089 64.0151 15.2264 63.4335 15.0319 63.239L7.26532 55.4735C5.77705 54.0495 5 52.1722 5 50.49C5 48.1598 6.29426 45.895 10.1775 44.3414L64.4779 22.2717Z" fill="white"/>
<path fill-rule="evenodd" clip-rule="evenodd" d="M70.8844 30.1023C71.661 29.8434 73.1502 29.3257 73.5378 29.1966C73.9263 29.0674 75.4794 28.4849 75.7382 28.42C76.7736 27.9671 77.8091 27.5786 78.9098 27.1258C79.0385 27.0609 79.233 27.1906 79.1681 27.3846C79.0385 27.7083 78.3272 29.1317 78.1327 29.4554C77.6799 30.3616 77.227 31.203 76.7736 31.9148C76.3208 32.627 75.7382 33.5975 75.3502 34.0509C74.7023 34.8275 74.1198 35.3452 73.2141 35.9925C72.049 36.7691 71.0136 37.0279 70.5607 37.2225L27.5231 48.7416C27.1999 48.8059 27.0702 49.1945 27.0702 49.3241C27.0702 49.5835 27.2642 49.8413 27.5231 49.971L12.2494 53.9191L11.0199 52.754C10.5671 52.3665 10.3726 51.784 10.3726 51.3306C10.3726 50.2299 11.2139 49.7126 12.5735 49.2598L70.8844 30.1023Z" fill="white"/>
</svg>
