<svg width="92" height="92" viewBox="0 0 92 92" fill="none" xmlns="http://www.w3.org/2000/svg">
<mask id="mask0_364_411" style="mask-type:luminance" maskUnits="userSpaceOnUse" x="6" y="7" width="79" height="79">
<path d="M84.7073 7.29248H6.73169V85.2681H84.7073V7.29248Z" fill="white"/>
</mask>
<g mask="url(#mask0_364_411)">
<path d="M26.4734 14.8862L26.6417 14.8879C26.7196 15.0793 26.8012 15.2689 26.8826 15.4567C26.9445 15.6303 26.9996 15.8074 27.0456 15.9865C27.0881 16.0768 27.1714 16.2592 27.2121 16.3514C27.3024 16.5126 27.391 16.6756 27.4779 16.8386C27.5151 17.152 27.655 17.4356 27.7985 17.7138C27.864 17.944 27.9492 18.1673 28.043 18.387C28.1918 18.6545 28.3319 18.9291 28.4009 19.2303C28.4452 19.3205 28.5355 19.503 28.5798 19.5952C28.7197 19.8681 28.8509 20.1479 28.927 20.4473C29.0121 20.628 29.0954 20.8105 29.1804 20.993C29.4993 21.9054 29.9918 22.7523 30.309 23.6664C30.4489 23.964 30.596 24.2598 30.7447 24.554C30.7909 24.7241 30.8422 24.8941 30.8988 25.0624C30.9484 25.1528 31.0478 25.3353 31.0956 25.4257C31.1611 25.6595 31.2427 25.888 31.3258 26.1166C31.8821 26.3982 32.2489 26.9244 32.6935 27.3442C35.0055 29.6528 37.3335 31.9453 39.6135 34.2838C39.6648 34.2076 39.7659 34.0534 39.8155 33.9773C39.9856 33.2191 40.3966 32.5458 40.5898 31.7929C40.7634 31.4492 40.9015 31.0913 41.0219 30.7264C41.0751 30.5473 41.13 30.3684 41.1921 30.193C41.247 30.0264 41.3107 29.8618 41.3815 29.7005C41.6331 29.1601 41.7996 28.5844 41.9734 28.0158C42.154 27.672 42.2833 27.3053 42.4002 26.935C42.7971 25.9305 43.1036 24.8941 43.5005 23.8896C43.582 23.6522 43.6545 23.413 43.7325 23.1757C43.8247 22.8726 43.9504 22.5821 44.094 22.3005C44.2269 21.831 44.3473 21.3439 44.6308 20.9364C44.6963 30.7104 44.6325 40.4898 44.6626 50.2656C43.2313 51.6971 41.8174 53.1462 40.3718 54.5654C40.1202 54.9746 39.9749 55.4565 39.8102 55.91C39.7233 56.0871 39.6383 56.2645 39.5533 56.4432C39.4895 56.7498 39.3442 57.0278 39.1954 57.2989C39.0466 57.6356 38.9333 57.988 38.7667 58.3177C38.7099 58.4841 38.6551 58.6543 38.6055 58.8261C38.4601 59.1043 38.3185 59.3877 38.2723 59.703C38.1838 59.8714 38.0952 60.0378 38.0066 60.2061C37.9678 60.3887 37.9233 60.5693 37.8703 60.7484C37.8188 60.8316 37.7144 60.998 37.6612 61.0813C37.5885 61.4924 37.36 61.852 37.252 62.2542C36.9684 62.8883 36.7275 63.5422 36.5096 64.203C36.3785 63.7211 36.4458 63.218 36.4352 62.7272C36.4387 55.4317 36.4335 48.1361 36.4387 40.8423C35.3049 39.0425 34.0949 37.2955 32.9291 35.5169C32.8211 35.3609 32.7202 35.1997 32.6263 35.035C32.4934 34.7762 32.3605 34.5158 32.1709 34.2926C32.1177 36.5974 32.1656 38.9041 32.1461 41.2108C33.0177 42.0453 33.8486 42.9239 34.7185 43.762C34.7132 46.159 34.7221 48.5542 34.7132 50.9495C33.7955 50.1184 33.0196 49.137 32.015 48.4072C30.1619 46.586 28.3283 44.7434 26.4859 42.9116C26.4859 33.5698 26.5088 24.228 26.4734 14.8862Z" fill="white"/>
</g>
<mask id="mask1_364_411" style="mask-type:luminance" maskUnits="userSpaceOnUse" x="6" y="7" width="79" height="79">
<path d="M84.7073 7.29248H6.73169V85.2681H84.7073V7.29248Z" fill="white"/>
</mask>
<g mask="url(#mask1_364_411)">
<path d="M64.9107 14.8862L65.0756 14.8897C65.0438 24.2297 65.0648 33.5698 65.0648 42.908C63.2224 44.7434 61.3922 46.5913 59.5338 48.409C58.5294 49.137 57.7533 50.1184 56.841 50.9529C56.8304 48.5559 56.841 46.159 56.8357 43.7637C57.7056 42.9186 58.5453 42.0434 59.4116 41.1932C59.3798 38.8918 59.4381 36.5904 59.3815 34.2891C59.1884 34.5105 59.0555 34.7709 58.9263 35.0314C58.8305 35.1961 58.7294 35.3573 58.6232 35.515C58.5116 35.694 58.3929 35.8657 58.2742 36.0376C57.2184 37.6411 56.1394 39.223 55.1137 40.8442C55.1172 48.1344 55.1137 55.4264 55.1153 62.7166C55.1137 63.218 55.1366 63.7228 55.0817 64.2225C54.8071 63.5723 54.591 62.8991 54.3004 62.2561C54.1871 61.8537 53.9516 61.4941 53.8876 61.0779C53.831 60.9946 53.7211 60.8263 53.6645 60.7413C53.6219 60.5623 53.5829 60.3816 53.5492 60.201C53.4536 60.0361 53.358 59.873 53.2624 59.7119C53.2322 59.5365 53.1985 59.3629 53.1631 59.1893C53.1046 59.1043 52.9895 58.9342 52.931 58.8492C52.8903 58.6684 52.8424 58.4894 52.7875 58.3141C52.6138 57.9899 52.5057 57.6373 52.3676 57.2989C52.3144 57.214 52.2116 57.0439 52.1584 56.9589C52.1018 56.7888 52.0486 56.6152 52.0026 56.4415C51.9141 56.2626 51.8291 56.0835 51.7439 55.9065C51.6625 55.5999 51.5279 55.313 51.3985 55.0278C51.34 54.8205 51.2781 54.6079 51.0973 54.4732C49.673 53.0966 48.2983 51.6669 46.8915 50.2709C46.8987 41.0762 46.8915 31.8815 46.8951 22.6868C46.8987 22.1021 46.8701 21.5174 46.9216 20.9345C47.2123 21.342 47.3221 21.8381 47.4603 22.3111C47.602 22.5893 47.7313 22.8726 47.8146 23.1739C47.8943 23.4113 47.9633 23.6522 48.0483 23.8896C48.3088 24.6213 48.6241 25.337 48.8031 26.0971C48.8987 26.2867 48.9928 26.4745 49.0865 26.664C49.1823 27.137 49.3558 27.5905 49.579 28.0175C49.7845 28.6534 49.9335 29.318 50.2859 29.8954C50.3001 29.9662 50.3266 30.1116 50.3408 30.1843C50.4135 30.3596 50.479 30.5403 50.5358 30.7228C50.6526 31.0877 50.7856 31.4492 50.9662 31.7893C51.2319 32.645 51.6004 33.4635 51.9035 34.3051C54.1746 31.9984 56.4778 29.7219 58.7669 27.4347C59.245 26.9899 59.6296 26.4177 60.2266 26.1183C60.308 25.8898 60.3895 25.6595 60.4552 25.4239C60.5046 25.3353 60.604 25.1545 60.6534 25.0642C60.7102 24.8941 60.7616 24.7241 60.8094 24.5522C60.9566 24.2617 61.1018 23.9676 61.2434 23.6735C61.557 22.7557 62.062 21.9107 62.3703 20.993C62.4606 20.8052 62.5545 20.6192 62.6536 20.435C62.6607 20.357 62.6749 20.2029 62.682 20.1267C62.7865 19.9531 62.8893 19.7794 62.9938 19.6058C63.1302 19.2586 63.2542 18.9096 63.3818 18.5587C63.4385 18.4809 63.5501 18.3232 63.6051 18.2434C63.6494 18.0645 63.6935 17.8855 63.7378 17.7085C63.8921 17.4356 64.0461 17.1556 64.0709 16.8367C64.1578 16.6737 64.2464 16.5108 64.335 16.3478C64.3775 16.2556 64.4606 16.0732 64.5015 15.9829C64.5494 15.8038 64.6043 15.6286 64.6679 15.4567C64.7495 15.2671 64.831 15.0776 64.9107 14.8862Z" fill="white"/>
</g>
<mask id="mask2_364_411" style="mask-type:luminance" maskUnits="userSpaceOnUse" x="6" y="7" width="79" height="79">
<path d="M84.7073 7.29248H6.73169V85.2681H84.7073V7.29248Z" fill="white"/>
</mask>
<g mask="url(#mask2_364_411)">
<path d="M9.41616 68.0226C11.7086 68.0191 13.9994 68.0244 16.29 68.021C16.4708 68.205 16.6515 68.3912 16.8287 68.5824C17.105 69.1743 17.7357 69.5108 17.9607 70.1433C16.9279 70.696 16.0704 71.5145 15.1137 72.1805C14.5451 72.6643 13.8612 72.9938 13.3279 73.52C13.0958 73.4367 12.8797 73.3163 12.6601 73.2118C12.2011 73.093 11.7955 72.845 11.3827 72.62C11.4111 73.2932 11.3952 73.9665 11.4075 74.6397C10.8671 74.8877 10.3392 75.164 9.80417 75.4226C9.63059 75.506 9.45515 75.5893 9.2797 75.6707C9.12562 75.7595 8.97513 75.8551 8.82635 75.9525C8.84039 73.993 8.8209 72.0336 8.8368 70.0724C8.69863 70.0796 8.4187 70.0919 8.27881 70.0972C8.62783 69.3885 9.14699 68.7721 9.41616 68.0226ZM11.3933 70.0777C11.4393 70.7793 11.3189 71.4985 11.4624 72.1896C12.1587 71.7537 12.8284 71.2718 13.5175 70.8217C13.8435 70.6765 14.1003 70.4303 14.2279 70.0937C13.2838 70.0601 12.3393 70.0813 11.3933 70.0777Z" fill="white"/>
</g>
<mask id="mask3_364_411" style="mask-type:luminance" maskUnits="userSpaceOnUse" x="6" y="7" width="79" height="79">
<path d="M84.7073 7.29248H6.73169V85.2681H84.7073V7.29248Z" fill="white"/>
</mask>
<g mask="url(#mask3_364_411)">
<path d="M18.5933 68.0224C21.0859 68.0171 23.5769 68.0277 26.0694 68.0171C26.3069 68.2633 26.5869 68.4901 26.7179 68.8179C27.0794 69.2324 27.5312 69.592 27.7136 70.1307C26.9677 70.9616 26.0446 71.649 25.4211 72.5773C25.251 72.7669 25.0721 72.9494 24.9215 73.1548C25.561 74.1134 26.4167 74.9034 27.0722 75.8494C27.2548 76.0621 27.4443 76.2694 27.625 76.4873C27.8624 76.962 28.3195 77.2597 28.656 77.6583C27.6586 77.2048 26.8331 76.4483 25.949 75.8123C25.5133 75.5555 25.0844 75.2843 24.7142 74.9371C24.5299 74.8361 24.351 74.7246 24.1756 74.6129C23.2792 73.9256 22.3154 73.3283 21.4739 72.5738C22.0089 72.3681 22.3332 71.8722 22.7407 71.4965C23.1641 71.0324 23.6974 70.6569 24.0056 70.0987C23.063 70.0544 22.117 70.0847 21.1727 70.0775C21.1869 71.5976 21.1621 73.1195 21.1869 74.6396C20.9371 74.7511 20.6891 74.8697 20.4463 74.9937C20.2657 75.0806 20.0867 75.1657 19.9059 75.2507C19.7342 75.3393 19.5624 75.4296 19.3905 75.5182C19.2629 75.5731 19.1354 75.6297 19.0078 75.6882C18.9016 75.752 18.6872 75.8831 18.5808 75.9469C18.6198 73.3054 18.595 70.6639 18.5933 68.0224Z" fill="white"/>
</g>
<mask id="mask4_364_411" style="mask-type:luminance" maskUnits="userSpaceOnUse" x="6" y="7" width="79" height="79">
<path d="M84.7073 7.29248H6.73169V85.2681H84.7073V7.29248Z" fill="white"/>
</mask>
<g mask="url(#mask4_364_411)">
<path d="M28.5375 68.0207C31.0284 68.026 33.5211 68.0101 36.012 68.0296C35.5815 68.7009 35.2325 69.4166 34.7985 70.0845C33.5726 70.0667 32.3465 70.0811 31.1188 70.0774V70.9296C32.4971 70.9154 33.8771 70.9614 35.2537 70.903C34.9384 71.633 34.4442 72.2636 34.1323 72.9901H31.1206C31.1206 73.2185 31.1206 73.4489 31.1223 73.6792C32.5095 73.6773 33.8966 73.6809 35.2838 73.6773C34.772 74.3205 34.5061 75.1213 33.9676 75.7396C32.1551 75.7201 30.3428 75.7414 28.5305 75.729C28.5534 73.16 28.5411 70.5895 28.5375 68.0207Z" fill="white"/>
</g>
<mask id="mask5_364_411" style="mask-type:luminance" maskUnits="userSpaceOnUse" x="6" y="7" width="79" height="79">
<path d="M84.7073 7.29248H6.73169V85.2681H84.7073V7.29248Z" fill="white"/>
</mask>
<g mask="url(#mask5_364_411)">
<path d="M36.8445 68.9422C37.0784 68.6746 37.2289 68.3522 37.3529 68.0246C39.6455 68.028 41.9414 68.0051 44.2339 68.0333C44.5386 68.3878 44.7601 68.8058 45.0063 69.2026C44.9921 70.9335 45.0135 72.6643 44.9957 74.3952C44.7406 74.8311 44.5263 75.2882 44.2888 75.7347C41.7838 75.7311 39.2804 75.7347 36.7754 75.7311C36.7896 73.8478 36.7631 71.9628 36.7896 70.0796C36.6071 70.0831 36.4247 70.0885 36.2422 70.0956C36.4565 69.7182 36.655 69.3319 36.8445 68.9422ZM39.3336 70.0814C39.3531 71.2807 39.3406 72.4784 39.3406 73.6778C40.315 73.6795 41.2896 73.6795 42.2657 73.6795C42.2639 72.4784 42.2586 71.2773 42.2692 70.0778C41.2913 70.0778 40.3116 70.0724 39.3336 70.0814Z" fill="white"/>
</g>
<mask id="mask6_364_411" style="mask-type:luminance" maskUnits="userSpaceOnUse" x="6" y="7" width="79" height="79">
<path d="M84.7073 7.29248H6.73169V85.2681H84.7073V7.29248Z" fill="white"/>
</mask>
<g mask="url(#mask6_364_411)">
<path d="M46.9604 68.0222C49.1501 68.026 51.3417 68.0099 53.5331 68.0294C53.8733 68.0311 53.923 68.4314 54.0665 68.6637C54.1161 68.7541 54.2153 68.9347 54.2649 69.0269C54.2577 70.8977 54.256 72.7703 54.2649 74.6428C53.5401 74.9688 52.8423 75.3497 52.1193 75.6811C52.0131 75.7501 51.7986 75.8884 51.6906 75.9556C51.6959 74.967 51.6906 73.9786 51.6943 72.9901H48.9446C48.9446 73.5409 48.9429 74.0918 48.9499 74.6428C48.2236 74.9706 47.5237 75.3515 46.7992 75.6846C46.6928 75.7537 46.4821 75.8884 46.3757 75.9556C46.3881 73.9962 46.3634 72.0367 46.3899 70.0756C46.2499 70.0809 45.9718 70.0915 45.8318 70.0968C46.1791 69.3882 46.7 68.7752 46.9604 68.0222ZM48.9429 70.0774C48.941 70.3609 48.9376 70.6425 48.934 70.9259C49.8569 70.9331 50.78 70.9296 51.7012 70.9278C51.6994 70.646 51.6995 70.3626 51.703 70.0827C50.7836 70.072 49.8623 70.0774 48.9429 70.0774Z" fill="white"/>
</g>
<mask id="mask7_364_411" style="mask-type:luminance" maskUnits="userSpaceOnUse" x="6" y="7" width="79" height="79">
<path d="M84.7073 7.29248H6.73169V85.2681H84.7073V7.29248Z" fill="white"/>
</mask>
<g mask="url(#mask7_364_411)">
<path d="M55.8754 68.0243C58.3345 68.0172 60.7916 68.0262 63.249 68.019C62.7016 68.6249 62.4482 69.4293 61.9521 70.0776C61.3267 70.0759 60.7031 70.0742 60.0777 70.0812C60.1008 71.603 60.0777 73.1266 60.0919 74.6501C59.8828 74.7388 59.6791 74.8327 59.4718 74.9249C59.3903 74.969 59.2239 75.0595 59.1423 75.1038C58.9722 75.1834 58.8039 75.265 58.6356 75.3464C58.5542 75.3943 58.3894 75.4899 58.308 75.5378C58.0545 75.6388 57.7941 75.7238 57.5284 75.784C57.5248 73.883 57.5142 71.9821 57.5337 70.0812C56.5822 70.0617 55.6292 70.1024 54.6777 70.0528C55.1153 69.3991 55.4431 68.6817 55.8754 68.0243Z" fill="white"/>
</g>
<mask id="mask8_364_411" style="mask-type:luminance" maskUnits="userSpaceOnUse" x="6" y="7" width="79" height="79">
<path d="M84.7073 7.29248H6.73169V85.2681H84.7073V7.29248Z" fill="white"/>
</mask>
<g mask="url(#mask8_364_411)">
<path d="M63.2861 70.0351C63.6865 69.3797 63.8973 68.5559 64.482 68.0421C66.7637 67.9942 69.0509 68.0332 71.3345 68.0226C71.4709 68.3769 71.6322 68.7276 71.9157 68.9899C71.9191 70.8022 71.9316 72.6164 71.9102 74.427C71.7898 74.9231 71.5082 75.3872 71.1431 75.7451C68.9695 75.7114 66.7955 75.7487 64.6219 75.7273C64.2569 75.7894 64.225 75.3766 64.0885 75.1464C64.0425 75.0613 63.9522 74.8894 63.906 74.8044C63.8123 74.5671 63.6564 74.3384 63.6918 74.0727C63.6988 72.7491 63.6812 71.424 63.7041 70.1025C63.5996 70.0847 63.3906 70.0512 63.2861 70.0351ZM66.4218 70.0813C66.4431 71.2788 66.4307 72.4783 66.4307 73.6777C67.4032 73.6811 68.3776 73.6794 69.352 73.6794C69.352 72.4783 69.3431 71.2788 69.3556 70.0777C68.3776 70.076 67.3998 70.0722 66.4218 70.0813Z" fill="white"/>
</g>
<mask id="mask9_364_411" style="mask-type:luminance" maskUnits="userSpaceOnUse" x="7" y="7" width="82" height="82">
<path d="M89 7H7V89H89V7Z" fill="white"/>
</mask>
<g mask="url(#mask9_364_411)">
<path d="M73.1241 68.021H80.5738C81.2027 68.6055 81.7308 69.2982 82.2374 69.9751C81.9857 70.5633 81.3498 70.8857 80.9794 71.4031C80.556 72.0815 79.9219 72.5829 79.3849 73.1657C80.7261 74.5954 81.8671 76.2005 83.1602 77.6745C82.6819 77.4974 82.3365 77.1271 81.9201 76.8578C81.8387 76.8012 81.6776 76.6896 81.5977 76.6329C80.6907 75.972 79.7889 75.3022 78.8695 74.6556C78.7916 74.6025 78.6339 74.4962 78.5559 74.4414C78.3044 74.2926 78.0846 74.1011 77.8615 73.9169C77.6718 73.8124 77.4929 73.6919 77.3175 73.5733C76.9028 73.2809 76.5114 72.962 76.0986 72.6697C76.694 72.1366 77.1598 71.4295 77.8703 71.0433C78.1448 70.8024 78.4071 70.5508 78.6727 70.301C78.5896 70.2497 78.4213 70.1469 78.338 70.0956C77.454 70.0477 76.5663 70.0866 75.6806 70.0814C75.7036 71.6032 75.6788 73.1251 75.6947 74.6486C75.4891 74.737 75.2855 74.8311 75.0833 74.9251C74.9188 75.0082 74.7557 75.0915 74.5946 75.1748C74.3624 75.2882 74.1339 75.4051 73.9107 75.5327C73.6573 75.6406 73.395 75.7275 73.1276 75.7825C73.1188 73.1959 73.1276 70.6093 73.1241 68.021Z" fill="white"/>
</g>
</svg>
